<?xml version="1.0" encoding="utf-8" ?>
<svg baseProfile="tiny" height="100%" version="1.2" viewBox="-1200,-1200,2400,2400" width="100%" xmlns="http://www.w3.org/2000/svg" xmlns:ev="http://www.w3.org/2001/xml-events" xmlns:xlink="http://www.w3.org/1999/xlink"><defs /><circle cx="6.0in" cy="0.0in" fill="rgb(0,0,255)" r="0.23555889455441165in" stroke="rgb(0,0,255)" stroke-width="0" /><circle cx="6.471117789108823in" cy="0.0in" fill="rgb(0,0,255)" r="0.23555889455441165in" stroke="rgb(0,0,255)" stroke-width="0" /><circle cx="6.942235578217646in" cy="0.0in" fill="rgb(0,0,255)" r="0.23555889455441165in" stroke="rgb(0,0,255)" stroke-width="0" /><circle cx="7.41335336732647in" cy="0.0in" fill="rgb(0,0,255)" r="0.23555889455441165in" stroke="rgb(0,0,255)" stroke-width="0" /><circle cx="5.981504002398768in" cy="0.4707545743670697in" fill="rgb(0,0,255)" r="0.23555889455441165in" stroke="rgb(0,0,255)" stroke-width="0" /><circle cx="6.451169492591382in" cy="0.5077180500818494in" fill="rgb(0,0,255)" r="0.23555889455441165in" stroke="rgb(0,0,255)" stroke-width="0" /><circle cx="6.920834982783996in" cy="0.5446815257966293in" fill="rgb(0,0,255)" r="0.23555889455441165in" stroke="rgb(0,0,255)" stroke-width="0" /><circle cx="7.390500472976611in" cy="0.5816450015114092in" fill="rgb(0,0,255)" r="0.23555889455441165in" stroke="rgb(0,0,255)" stroke-width="0" /><circle cx="5.926130043570827in" cy="0.9386067902413853in" fill="rgb(0,0,255)" r="0.23555889455441165in" stroke="rgb(0,0,255)" stroke-width="0" /><circle cx="6.391447590920571in" cy="1.0123058495515602in" fill="rgb(0,0,255)" r="0.23555889455441165in" stroke="rgb(0,0,255)" stroke-width="0" /><circle cx="6.856765138270314in" cy="1.0860049088617354in" fill="rgb(0,0,255)" r="0.23555889455441165in" stroke="rgb(0,0,255)" stroke-width="0" /><circle cx="7.3220826856200585in" cy="1.1597039681719106in" fill="rgb(0,0,255)" r="0.23555889455441165in" stroke="rgb(0,0,255)" stroke-width="0" /><circle cx="5.834219522386059in" cy="1.4006721831354323in" fill="rgb(0,0,255)" r="0.23555889455441165in" stroke="rgb(0,0,255)" stroke-width="0" /><circle cx="6.292320289479735in" cy="1.5106524468329312in" fill="rgb(0,0,255)" r="0.23555889455441165in" stroke="rgb(0,0,255)" stroke-width="0" /><circle cx="6.750421056573411in" cy="1.6206327105304301in" fill="rgb(0,0,255)" r="0.23555889455441165in" stroke="rgb(0,0,255)" stroke-width="0" /><circle cx="7.208521823667088in" cy="1.7306129742279293in" fill="rgb(0,0,255)" r="0.23555889455441165in" stroke="rgb(0,0,255)" stroke-width="0" /><circle cx="5.706339097770921in" cy="1.8541019662496843in" fill="rgb(0,0,255)" r="0.23555889455441165in" stroke="rgb(0,0,255)" stroke-width="0" /><circle cx="6.1543987410454335in" cy="1.9996853694366632in" fill="rgb(0,0,255)" r="0.23555889455441165in" stroke="rgb(0,0,255)" stroke-width="0" /><circle cx="6.602458384319946in" cy="2.145268772623642in" fill="rgb(0,0,255)" r="0.23555889455441165in" stroke="rgb(0,0,255)" stroke-width="0" /><circle cx="7.050518027594459in" cy="2.2908521758106213in" fill="rgb(0,0,255)" r="0.23555889455441165in" stroke="rgb(0,0,255)" stroke-width="0" /><circle cx="5.54327719506772in" cy="2.2961005941905386in" fill="rgb(0,0,255)" r="0.23555889455441165in" stroke="rgb(0,0,255)" stroke-width="0" /><circle cx="5.978533277827331in" cy="2.4763895667749556in" fill="rgb(0,0,255)" r="0.23555889455441165in" stroke="rgb(0,0,255)" stroke-width="0" /><circle cx="6.413789360586941in" cy="2.6566785393593726in" fill="rgb(0,0,255)" r="0.23555889455441165in" stroke="rgb(0,0,255)" stroke-width="0" /><circle cx="6.849045443346553in" cy="2.83696751194379in" fill="rgb(0,0,255)" r="0.23555889455441165in" stroke="rgb(0,0,255)" stroke-width="0" /><circle cx="5.346039145130208in" cy="2.7239429984372805in" fill="rgb(0,0,255)" r="0.23555889455441165in" stroke="rgb(0,0,255)" stroke-width="0" /><circle cx="5.765808168887369in" cy="2.9378259989509856in" fill="rgb(0,0,255)" r="0.23555889455441165in" stroke="rgb(0,0,255)" stroke-width="0" /><circle cx="6.185577192644529in" cy="3.1517089994646907in" fill="rgb(0,0,255)" r="0.23555889455441165in" stroke="rgb(0,0,255)" stroke-width="0" /><circle cx="6.605346216401691in" cy="3.365591999978396in" fill="rgb(0,0,255)" r="0.23555889455441165in" stroke="rgb(0,0,255)" stroke-width="0" /><circle cx="5.115840986124553in" cy="3.134991388295693in" fill="rgb(0,0,255)" r="0.23555889455441165in" stroke="rgb(0,0,255)" stroke-width="0" /><circle cx="5.517534935260437in" cy="3.3811497569172038in" fill="rgb(0,0,255)" r="0.23555889455441165in" stroke="rgb(0,0,255)" stroke-width="0" /><circle cx="5.91922888439632in" cy="3.627308125538715in" fill="rgb(0,0,255)" r="0.23555889455441165in" stroke="rgb(0,0,255)" stroke-width="0" /><circle cx="6.3209228335322045in" cy="3.8734664941602266in" fill="rgb(0,0,255)" r="0.23555889455441165in" stroke="rgb(0,0,255)" stroke-width="0" /><circle cx="4.854101966249685in" cy="3.526711513754839in" fill="rgb(0,0,255)" r="0.23555889455441165in" stroke="rgb(0,0,255)" stroke-width="0" /><circle cx="5.235244263991075in" cy="3.8036276022856406in" fill="rgb(0,0,255)" r="0.23555889455441165in" stroke="rgb(0,0,255)" stroke-width="0" /><circle cx="5.616386561732465in" cy="4.080543690816443in" fill="rgb(0,0,255)" r="0.23555889455441165in" stroke="rgb(0,0,255)" stroke-width="0" /><circle cx="5.9975288594738565in" cy="4.357459779347245in" fill="rgb(0,0,255)" r="0.23555889455441165in" stroke="rgb(0,0,255)" stroke-width="0" /><circle cx="4.562435793600185in" cy="3.896688289981102in" fill="rgb(0,0,255)" r="0.23555889455441165in" stroke="rgb(0,0,255)" stroke-width="0" /><circle cx="4.920676570938832in" cy="4.2026548186514585in" fill="rgb(0,0,255)" r="0.23555889455441165in" stroke="rgb(0,0,255)" stroke-width="0" /><circle cx="5.278917348277479in" cy="4.508621347321815in" fill="rgb(0,0,255)" r="0.23555889455441165in" stroke="rgb(0,0,255)" stroke-width="0" /><circle cx="5.637158125616126in" cy="4.814587875992172in" fill="rgb(0,0,255)" r="0.23555889455441165in" stroke="rgb(0,0,255)" stroke-width="0" /><circle cx="4.242640687119286in" cy="4.242640687119285in" fill="rgb(0,0,255)" r="0.23555889455441165in" stroke="rgb(0,0,255)" stroke-width="0" /><circle cx="4.575771270535748in" cy="4.575771270535747in" fill="rgb(0,0,255)" r="0.23555889455441165in" stroke="rgb(0,0,255)" stroke-width="0" /><circle cx="4.9089018539522105in" cy="4.9089018539522105in" fill="rgb(0,0,255)" r="0.23555889455441165in" stroke="rgb(0,0,255)" stroke-width="0" /><circle cx="5.242032437368674in" cy="5.242032437368674in" fill="rgb(0,0,255)" r="0.23555889455441165in" stroke="rgb(0,0,255)" stroke-width="0" /><circle cx="3.896688289981102in" cy="4.562435793600185in" fill="rgb(0,0,255)" r="0.23555889455441165in" stroke="rgb(0,0,255)" stroke-width="0" /><circle cx="4.2026548186514585in" cy="4.920676570938832in" fill="rgb(0,0,255)" r="0.23555889455441165in" stroke="rgb(0,0,255)" stroke-width="0" /><circle cx="4.508621347321815in" cy="5.278917348277479in" fill="rgb(0,0,255)" r="0.23555889455441165in" stroke="rgb(0,0,255)" stroke-width="0" /><circle cx="4.814587875992172in" cy="5.637158125616126in" fill="rgb(0,0,255)" r="0.23555889455441165in" stroke="rgb(0,0,255)" stroke-width="0" /><circle cx="3.526711513754839in" cy="4.854101966249685in" fill="rgb(0,0,255)" r="0.23555889455441165in" stroke="rgb(0,0,255)" stroke-width="0" /><circle cx="3.8036276022856406in" cy="5.235244263991075in" fill="rgb(0,0,255)" r="0.23555889455441165in" stroke="rgb(0,0,255)" stroke-width="0" /><circle cx="4.080543690816443in" cy="5.616386561732465in" fill="rgb(0,0,255)" r="0.23555889455441165in" stroke="rgb(0,0,255)" stroke-width="0" /><circle cx="4.357459779347245in" cy="5.9975288594738565in" fill="rgb(0,0,255)" r="0.23555889455441165in" stroke="rgb(0,0,255)" stroke-width="0" /><circle cx="3.1349913882956937in" cy="5.115840986124553in" fill="rgb(0,0,255)" r="0.23555889455441165in" stroke="rgb(0,0,255)" stroke-width="0" /><circle cx="3.3811497569172047in" cy="5.517534935260437in" fill="rgb(0,0,255)" r="0.23555889455441165in" stroke="rgb(0,0,255)" stroke-width="0" /><circle cx="3.627308125538716in" cy="5.91922888439632in" fill="rgb(0,0,255)" r="0.23555889455441165in" stroke="rgb(0,0,255)" stroke-width="0" /><circle cx="3.8734664941602275in" cy="6.3209228335322045in" fill="rgb(0,0,255)" r="0.23555889455441165in" stroke="rgb(0,0,255)" stroke-width="0" /><circle cx="2.723942998437281in" cy="5.346039145130207in" fill="rgb(0,0,255)" r="0.23555889455441165in" stroke="rgb(0,0,255)" stroke-width="0" /><circle cx="2.937825998950986in" cy="5.765808168887368in" fill="rgb(0,0,255)" r="0.23555889455441165in" stroke="rgb(0,0,255)" stroke-width="0" /><circle cx="3.1517089994646907in" cy="6.185577192644529in" fill="rgb(0,0,255)" r="0.23555889455441165in" stroke="rgb(0,0,255)" stroke-width="0" /><circle cx="3.3655919999783963in" cy="6.60534621640169in" fill="rgb(0,0,255)" r="0.23555889455441165in" stroke="rgb(0,0,255)" stroke-width="0" /><circle cx="2.296100594190539in" cy="5.54327719506772in" fill="rgb(0,0,255)" r="0.23555889455441165in" stroke="rgb(0,0,255)" stroke-width="0" /><circle cx="2.476389566774956in" cy="5.978533277827331in" fill="rgb(0,0,255)" r="0.23555889455441165in" stroke="rgb(0,0,255)" stroke-width="0" /><circle cx="2.656678539359373in" cy="6.413789360586941in" fill="rgb(0,0,255)" r="0.23555889455441165in" stroke="rgb(0,0,255)" stroke-width="0" /><circle cx="2.8369675119437905in" cy="6.849045443346553in" fill="rgb(0,0,255)" r="0.23555889455441165in" stroke="rgb(0,0,255)" stroke-width="0" /><circle cx="1.8541019662496847in" cy="5.706339097770921in" fill="rgb(0,0,255)" r="0.23555889455441165in" stroke="rgb(0,0,255)" stroke-width="0" /><circle cx="1.9996853694366636in" cy="6.1543987410454335in" fill="rgb(0,0,255)" r="0.23555889455441165in" stroke="rgb(0,0,255)" stroke-width="0" /><circle cx="2.1452687726236426in" cy="6.602458384319946in" fill="rgb(0,0,255)" r="0.23555889455441165in" stroke="rgb(0,0,255)" stroke-width="0" /><circle cx="2.2908521758106217in" cy="7.050518027594459in" fill="rgb(0,0,255)" r="0.23555889455441165in" stroke="rgb(0,0,255)" stroke-width="0" /><circle cx="1.4006721831354327in" cy="5.834219522386059in" fill="rgb(0,0,255)" r="0.23555889455441165in" stroke="rgb(0,0,255)" stroke-width="0" /><circle cx="1.5106524468329319in" cy="6.292320289479735in" fill="rgb(0,0,255)" r="0.23555889455441165in" stroke="rgb(0,0,255)" stroke-width="0" /><circle cx="1.6206327105304308in" cy="6.750421056573411in" fill="rgb(0,0,255)" r="0.23555889455441165in" stroke="rgb(0,0,255)" stroke-width="0" /><circle cx="1.73061297422793in" cy="7.208521823667088in" fill="rgb(0,0,255)" r="0.23555889455441165in" stroke="rgb(0,0,255)" stroke-width="0" /><circle cx="0.9386067902413855in" cy="5.926130043570827in" fill="rgb(0,0,255)" r="0.23555889455441165in" stroke="rgb(0,0,255)" stroke-width="0" /><circle cx="1.0123058495515607in" cy="6.391447590920571in" fill="rgb(0,0,255)" r="0.23555889455441165in" stroke="rgb(0,0,255)" stroke-width="0" /><circle cx="1.0860049088617356in" cy="6.856765138270314in" fill="rgb(0,0,255)" r="0.23555889455441165in" stroke="rgb(0,0,255)" stroke-width="0" /><circle cx="1.159703968171911in" cy="7.3220826856200585in" fill="rgb(0,0,255)" r="0.23555889455441165in" stroke="rgb(0,0,255)" stroke-width="0" /><circle cx="0.47075457436707in" cy="5.981504002398768in" fill="rgb(0,0,255)" r="0.23555889455441165in" stroke="rgb(0,0,255)" stroke-width="0" /><circle cx="0.5077180500818499in" cy="6.451169492591382in" fill="rgb(0,0,255)" r="0.23555889455441165in" stroke="rgb(0,0,255)" stroke-width="0" /><circle cx="0.5446815257966297in" cy="6.920834982783996in" fill="rgb(0,0,255)" r="0.23555889455441165in" stroke="rgb(0,0,255)" stroke-width="0" /><circle cx="0.5816450015114096in" cy="7.390500472976611in" fill="rgb(0,0,255)" r="0.23555889455441165in" stroke="rgb(0,0,255)" stroke-width="0" /><circle cx="3.6739403974420594e-16in" cy="6.0in" fill="rgb(0,0,255)" r="0.23555889455441165in" stroke="rgb(0,0,255)" stroke-width="0" /><circle cx="3.9624168436688084e-16in" cy="6.471117789108823in" fill="rgb(0,0,255)" r="0.23555889455441165in" stroke="rgb(0,0,255)" stroke-width="0" /><circle cx="4.2508932898955575e-16in" cy="6.942235578217646in" fill="rgb(0,0,255)" r="0.23555889455441165in" stroke="rgb(0,0,255)" stroke-width="0" /><circle cx="4.539369736122308e-16in" cy="7.41335336732647in" fill="rgb(0,0,255)" r="0.23555889455441165in" stroke="rgb(0,0,255)" stroke-width="0" /><circle cx="-0.47075457436706925in" cy="5.981504002398768in" fill="rgb(0,0,255)" r="0.23555889455441165in" stroke="rgb(0,0,255)" stroke-width="0" /><circle cx="-0.507718050081849in" cy="6.451169492591382in" fill="rgb(0,0,255)" r="0.23555889455441165in" stroke="rgb(0,0,255)" stroke-width="0" /><circle cx="-0.5446815257966289in" cy="6.920834982783996in" fill="rgb(0,0,255)" r="0.23555889455441165in" stroke="rgb(0,0,255)" stroke-width="0" /><circle cx="-0.5816450015114087in" cy="7.390500472976611in" fill="rgb(0,0,255)" r="0.23555889455441165in" stroke="rgb(0,0,255)" stroke-width="0" /><circle cx="-0.9386067902413848in" cy="5.926130043570827in" fill="rgb(0,0,255)" r="0.23555889455441165in" stroke="rgb(0,0,255)" stroke-width="0" /><circle cx="-1.01230584955156in" cy="6.391447590920571in" fill="rgb(0,0,255)" r="0.23555889455441165in" stroke="rgb(0,0,255)" stroke-width="0" /><circle cx="-1.086004908861735in" cy="6.856765138270314in" fill="rgb(0,0,255)" r="0.23555889455441165in" stroke="rgb(0,0,255)" stroke-width="0" /><circle cx="-1.1597039681719101in" cy="7.3220826856200585in" fill="rgb(0,0,255)" r="0.23555889455441165in" stroke="rgb(0,0,255)" stroke-width="0" /><circle cx="-1.400672183135432in" cy="5.83421952238606in" fill="rgb(0,0,255)" r="0.23555889455441165in" stroke="rgb(0,0,255)" stroke-width="0" /><circle cx="-1.510652446832931in" cy="6.292320289479735in" fill="rgb(0,0,255)" r="0.23555889455441165in" stroke="rgb(0,0,255)" stroke-width="0" /><circle cx="-1.62063271053043in" cy="6.750421056573412in" fill="rgb(0,0,255)" r="0.23555889455441165in" stroke="rgb(0,0,255)" stroke-width="0" /><circle cx="-1.730612974227929in" cy="7.2085218236670885in" fill="rgb(0,0,255)" r="0.23555889455441165in" stroke="rgb(0,0,255)" stroke-width="0" /><circle cx="-1.854101966249684in" cy="5.706339097770922in" fill="rgb(0,0,255)" r="0.23555889455441165in" stroke="rgb(0,0,255)" stroke-width="0" /><circle cx="-1.999685369436663in" cy="6.154398741045434in" fill="rgb(0,0,255)" r="0.23555889455441165in" stroke="rgb(0,0,255)" stroke-width="0" /><circle cx="-2.1452687726236417in" cy="6.602458384319946in" fill="rgb(0,0,255)" r="0.23555889455441165in" stroke="rgb(0,0,255)" stroke-width="0" /><circle cx="-2.290852175810621in" cy="7.0505180275944594in" fill="rgb(0,0,255)" r="0.23555889455441165in" stroke="rgb(0,0,255)" stroke-width="0" /><circle cx="-2.2961005941905386in" cy="5.54327719506772in" fill="rgb(0,0,255)" r="0.23555889455441165in" stroke="rgb(0,0,255)" stroke-width="0" /><circle cx="-2.476389566774955in" cy="5.978533277827331in" fill="rgb(0,0,255)" r="0.23555889455441165in" stroke="rgb(0,0,255)" stroke-width="0" /><circle cx="-2.656678539359372in" cy="6.413789360586941in" fill="rgb(0,0,255)" r="0.23555889455441165in" stroke="rgb(0,0,255)" stroke-width="0" /><circle cx="-2.8369675119437896in" cy="6.849045443346553in" fill="rgb(0,0,255)" r="0.23555889455441165in" stroke="rgb(0,0,255)" stroke-width="0" /><circle cx="-2.72394299843728in" cy="5.346039145130208in" fill="rgb(0,0,255)" r="0.23555889455441165in" stroke="rgb(0,0,255)" stroke-width="0" /><circle cx="-2.937825998950985in" cy="5.765808168887369in" fill="rgb(0,0,255)" r="0.23555889455441165in" stroke="rgb(0,0,255)" stroke-width="0" /><circle cx="-3.1517089994646903in" cy="6.185577192644529in" fill="rgb(0,0,255)" r="0.23555889455441165in" stroke="rgb(0,0,255)" stroke-width="0" /><circle cx="-3.3655919999783954in" cy="6.605346216401691in" fill="rgb(0,0,255)" r="0.23555889455441165in" stroke="rgb(0,0,255)" stroke-width="0" /><circle cx="-3.134991388295693in" cy="5.115840986124554in" fill="rgb(0,0,255)" r="0.23555889455441165in" stroke="rgb(0,0,255)" stroke-width="0" /><circle cx="-3.3811497569172038in" cy="5.5175349352604375in" fill="rgb(0,0,255)" r="0.23555889455441165in" stroke="rgb(0,0,255)" stroke-width="0" /><circle cx="-3.627308125538715in" cy="5.919228884396321in" fill="rgb(0,0,255)" r="0.23555889455441165in" stroke="rgb(0,0,255)" stroke-width="0" /><circle cx="-3.8734664941602266in" cy="6.320922833532205in" fill="rgb(0,0,255)" r="0.23555889455441165in" stroke="rgb(0,0,255)" stroke-width="0" /><circle cx="-3.5267115137548384in" cy="4.854101966249685in" fill="rgb(0,0,255)" r="0.23555889455441165in" stroke="rgb(0,0,255)" stroke-width="0" /><circle cx="-3.8036276022856397in" cy="5.235244263991075in" fill="rgb(0,0,255)" r="0.23555889455441165in" stroke="rgb(0,0,255)" stroke-width="0" /><circle cx="-4.080543690816442in" cy="5.616386561732465in" fill="rgb(0,0,255)" r="0.23555889455441165in" stroke="rgb(0,0,255)" stroke-width="0" /><circle cx="-4.357459779347244in" cy="5.9975288594738565in" fill="rgb(0,0,255)" r="0.23555889455441165in" stroke="rgb(0,0,255)" stroke-width="0" /><circle cx="-3.8966882899811015in" cy="4.562435793600186in" fill="rgb(0,0,255)" r="0.23555889455441165in" stroke="rgb(0,0,255)" stroke-width="0" /><circle cx="-4.202654818651458in" cy="4.9206765709388325in" fill="rgb(0,0,255)" r="0.23555889455441165in" stroke="rgb(0,0,255)" stroke-width="0" /><circle cx="-4.508621347321814in" cy="5.27891734827748in" fill="rgb(0,0,255)" r="0.23555889455441165in" stroke="rgb(0,0,255)" stroke-width="0" /><circle cx="-4.814587875992171in" cy="5.637158125616127in" fill="rgb(0,0,255)" r="0.23555889455441165in" stroke="rgb(0,0,255)" stroke-width="0" /><circle cx="-4.242640687119285in" cy="4.242640687119286in" fill="rgb(0,0,255)" r="0.23555889455441165in" stroke="rgb(0,0,255)" stroke-width="0" /><circle cx="-4.575771270535747in" cy="4.575771270535748in" fill="rgb(0,0,255)" r="0.23555889455441165in" stroke="rgb(0,0,255)" stroke-width="0" /><circle cx="-4.9089018539522105in" cy="4.9089018539522105in" fill="rgb(0,0,255)" r="0.23555889455441165in" stroke="rgb(0,0,255)" stroke-width="0" /><circle cx="-5.242032437368674in" cy="5.242032437368674in" fill="rgb(0,0,255)" r="0.23555889455441165in" stroke="rgb(0,0,255)" stroke-width="0" /><circle cx="-4.562435793600185in" cy="3.8966882899811024in" fill="rgb(0,0,255)" r="0.23555889455441165in" stroke="rgb(0,0,255)" stroke-width="0" /><circle cx="-4.920676570938832in" cy="4.2026548186514585in" fill="rgb(0,0,255)" r="0.23555889455441165in" stroke="rgb(0,0,255)" stroke-width="0" /><circle cx="-5.278917348277479in" cy="4.5086213473218155in" fill="rgb(0,0,255)" r="0.23555889455441165in" stroke="rgb(0,0,255)" stroke-width="0" /><circle cx="-5.637158125616126in" cy="4.8145878759921725in" fill="rgb(0,0,255)" r="0.23555889455441165in" stroke="rgb(0,0,255)" stroke-width="0" /><circle cx="-4.854101966249684in" cy="3.5267115137548393in" fill="rgb(0,0,255)" r="0.23555889455441165in" stroke="rgb(0,0,255)" stroke-width="0" /><circle cx="-5.235244263991074in" cy="3.8036276022856415in" fill="rgb(0,0,255)" r="0.23555889455441165in" stroke="rgb(0,0,255)" stroke-width="0" /><circle cx="-5.616386561732465in" cy="4.080543690816443in" fill="rgb(0,0,255)" r="0.23555889455441165in" stroke="rgb(0,0,255)" stroke-width="0" /><circle cx="-5.997528859473856in" cy="4.357459779347246in" fill="rgb(0,0,255)" r="0.23555889455441165in" stroke="rgb(0,0,255)" stroke-width="0" /><circle cx="-5.115840986124553in" cy="3.1349913882956937in" fill="rgb(0,0,255)" r="0.23555889455441165in" stroke="rgb(0,0,255)" stroke-width="0" /><circle cx="-5.517534935260437in" cy="3.3811497569172047in" fill="rgb(0,0,255)" r="0.23555889455441165in" stroke="rgb(0,0,255)" stroke-width="0" /><circle cx="-5.91922888439632in" cy="3.627308125538716in" fill="rgb(0,0,255)" r="0.23555889455441165in" stroke="rgb(0,0,255)" stroke-width="0" /><circle cx="-6.3209228335322045in" cy="3.8734664941602275in" fill="rgb(0,0,255)" r="0.23555889455441165in" stroke="rgb(0,0,255)" stroke-width="0" /><circle cx="-5.346039145130207in" cy="2.7239429984372814in" fill="rgb(0,0,255)" r="0.23555889455441165in" stroke="rgb(0,0,255)" stroke-width="0" /><circle cx="-5.765808168887368in" cy="2.937825998950986in" fill="rgb(0,0,255)" r="0.23555889455441165in" stroke="rgb(0,0,255)" stroke-width="0" /><circle cx="-6.185577192644529in" cy="3.151708999464691in" fill="rgb(0,0,255)" r="0.23555889455441165in" stroke="rgb(0,0,255)" stroke-width="0" /><circle cx="-6.60534621640169in" cy="3.3655919999783968in" fill="rgb(0,0,255)" r="0.23555889455441165in" stroke="rgb(0,0,255)" stroke-width="0" /><circle cx="-5.54327719506772in" cy="2.2961005941905395in" fill="rgb(0,0,255)" r="0.23555889455441165in" stroke="rgb(0,0,255)" stroke-width="0" /><circle cx="-5.978533277827331in" cy="2.4763895667749565in" fill="rgb(0,0,255)" r="0.23555889455441165in" stroke="rgb(0,0,255)" stroke-width="0" /><circle cx="-6.413789360586941in" cy="2.6566785393593735in" fill="rgb(0,0,255)" r="0.23555889455441165in" stroke="rgb(0,0,255)" stroke-width="0" /><circle cx="-6.849045443346553in" cy="2.836967511943791in" fill="rgb(0,0,255)" r="0.23555889455441165in" stroke="rgb(0,0,255)" stroke-width="0" /><circle cx="-5.706339097770921in" cy="1.8541019662496852in" fill="rgb(0,0,255)" r="0.23555889455441165in" stroke="rgb(0,0,255)" stroke-width="0" /><circle cx="-6.1543987410454335in" cy="1.9996853694366639in" fill="rgb(0,0,255)" r="0.23555889455441165in" stroke="rgb(0,0,255)" stroke-width="0" /><circle cx="-6.602458384319946in" cy="2.145268772623643in" fill="rgb(0,0,255)" r="0.23555889455441165in" stroke="rgb(0,0,255)" stroke-width="0" /><circle cx="-7.050518027594459in" cy="2.290852175810622in" fill="rgb(0,0,255)" r="0.23555889455441165in" stroke="rgb(0,0,255)" stroke-width="0" /><circle cx="-5.834219522386059in" cy="1.4006721831354332in" fill="rgb(0,0,255)" r="0.23555889455441165in" stroke="rgb(0,0,255)" stroke-width="0" /><circle cx="-6.292320289479735in" cy="1.510652446832932in" fill="rgb(0,0,255)" r="0.23555889455441165in" stroke="rgb(0,0,255)" stroke-width="0" /><circle cx="-6.750421056573411in" cy="1.6206327105304312in" fill="rgb(0,0,255)" r="0.23555889455441165in" stroke="rgb(0,0,255)" stroke-width="0" /><circle cx="-7.208521823667088in" cy="1.7306129742279304in" fill="rgb(0,0,255)" r="0.23555889455441165in" stroke="rgb(0,0,255)" stroke-width="0" /><circle cx="-5.926130043570826in" cy="0.9386067902413859in" fill="rgb(0,0,255)" r="0.23555889455441165in" stroke="rgb(0,0,255)" stroke-width="0" /><circle cx="-6.39144759092057in" cy="1.0123058495515609in" fill="rgb(0,0,255)" r="0.23555889455441165in" stroke="rgb(0,0,255)" stroke-width="0" /><circle cx="-6.856765138270313in" cy="1.086004908861736in" fill="rgb(0,0,255)" r="0.23555889455441165in" stroke="rgb(0,0,255)" stroke-width="0" /><circle cx="-7.322082685620058in" cy="1.1597039681719115in" fill="rgb(0,0,255)" r="0.23555889455441165in" stroke="rgb(0,0,255)" stroke-width="0" /><circle cx="-5.981504002398768in" cy="0.4707545743670704in" fill="rgb(0,0,255)" r="0.23555889455441165in" stroke="rgb(0,0,255)" stroke-width="0" /><circle cx="-6.451169492591382in" cy="0.5077180500818503in" fill="rgb(0,0,255)" r="0.23555889455441165in" stroke="rgb(0,0,255)" stroke-width="0" /><circle cx="-6.920834982783996in" cy="0.5446815257966302in" fill="rgb(0,0,255)" r="0.23555889455441165in" stroke="rgb(0,0,255)" stroke-width="0" /><circle cx="-7.390500472976611in" cy="0.5816450015114101in" fill="rgb(0,0,255)" r="0.23555889455441165in" stroke="rgb(0,0,255)" stroke-width="0" /><circle cx="-6.0in" cy="7.347880794884119e-16in" fill="rgb(0,0,255)" r="0.23555889455441165in" stroke="rgb(0,0,255)" stroke-width="0" /><circle cx="-6.471117789108823in" cy="7.924833687337617e-16in" fill="rgb(0,0,255)" r="0.23555889455441165in" stroke="rgb(0,0,255)" stroke-width="0" /><circle cx="-6.942235578217646in" cy="8.501786579791115e-16in" fill="rgb(0,0,255)" r="0.23555889455441165in" stroke="rgb(0,0,255)" stroke-width="0" /><circle cx="-7.41335336732647in" cy="9.078739472244615e-16in" fill="rgb(0,0,255)" r="0.23555889455441165in" stroke="rgb(0,0,255)" stroke-width="0" /><circle cx="-5.981504002398768in" cy="-0.4707545743670689in" fill="rgb(0,0,255)" r="0.23555889455441165in" stroke="rgb(0,0,255)" stroke-width="0" /><circle cx="-6.451169492591382in" cy="-0.5077180500818487in" fill="rgb(0,0,255)" r="0.23555889455441165in" stroke="rgb(0,0,255)" stroke-width="0" /><circle cx="-6.920834982783996in" cy="-0.5446815257966284in" fill="rgb(0,0,255)" r="0.23555889455441165in" stroke="rgb(0,0,255)" stroke-width="0" /><circle cx="-7.390500472976611in" cy="-0.5816450015114083in" fill="rgb(0,0,255)" r="0.23555889455441165in" stroke="rgb(0,0,255)" stroke-width="0" /><circle cx="-5.926130043570827in" cy="-0.9386067902413844in" fill="rgb(0,0,255)" r="0.23555889455441165in" stroke="rgb(0,0,255)" stroke-width="0" /><circle cx="-6.391447590920571in" cy="-1.0123058495515593in" fill="rgb(0,0,255)" r="0.23555889455441165in" stroke="rgb(0,0,255)" stroke-width="0" /><circle cx="-6.856765138270314in" cy="-1.0860049088617343in" fill="rgb(0,0,255)" r="0.23555889455441165in" stroke="rgb(0,0,255)" stroke-width="0" /><circle cx="-7.3220826856200585in" cy="-1.1597039681719095in" fill="rgb(0,0,255)" r="0.23555889455441165in" stroke="rgb(0,0,255)" stroke-width="0" /><circle cx="-5.83421952238606in" cy="-1.4006721831354316in" fill="rgb(0,0,255)" r="0.23555889455441165in" stroke="rgb(0,0,255)" stroke-width="0" /><circle cx="-6.292320289479735in" cy="-1.5106524468329305in" fill="rgb(0,0,255)" r="0.23555889455441165in" stroke="rgb(0,0,255)" stroke-width="0" /><circle cx="-6.750421056573412in" cy="-1.6206327105304295in" fill="rgb(0,0,255)" r="0.23555889455441165in" stroke="rgb(0,0,255)" stroke-width="0" /><circle cx="-7.2085218236670885in" cy="-1.7306129742279286in" fill="rgb(0,0,255)" r="0.23555889455441165in" stroke="rgb(0,0,255)" stroke-width="0" /><circle cx="-5.706339097770922in" cy="-1.8541019662496838in" fill="rgb(0,0,255)" r="0.23555889455441165in" stroke="rgb(0,0,255)" stroke-width="0" /><circle cx="-6.154398741045434in" cy="-1.9996853694366625in" fill="rgb(0,0,255)" r="0.23555889455441165in" stroke="rgb(0,0,255)" stroke-width="0" /><circle cx="-6.602458384319946in" cy="-2.1452687726236412in" fill="rgb(0,0,255)" r="0.23555889455441165in" stroke="rgb(0,0,255)" stroke-width="0" /><circle cx="-7.0505180275944594in" cy="-2.2908521758106204in" fill="rgb(0,0,255)" r="0.23555889455441165in" stroke="rgb(0,0,255)" stroke-width="0" /><circle cx="-5.543277195067721in" cy="-2.296100594190538in" fill="rgb(0,0,255)" r="0.23555889455441165in" stroke="rgb(0,0,255)" stroke-width="0" /><circle cx="-5.9785332778273315in" cy="-2.476389566774955in" fill="rgb(0,0,255)" r="0.23555889455441165in" stroke="rgb(0,0,255)" stroke-width="0" /><circle cx="-6.413789360586942in" cy="-2.6566785393593717in" fill="rgb(0,0,255)" r="0.23555889455441165in" stroke="rgb(0,0,255)" stroke-width="0" /><circle cx="-6.8490454433465535in" cy="-2.836967511943789in" fill="rgb(0,0,255)" r="0.23555889455441165in" stroke="rgb(0,0,255)" stroke-width="0" /><circle cx="-5.346039145130208in" cy="-2.72394299843728in" fill="rgb(0,0,255)" r="0.23555889455441165in" stroke="rgb(0,0,255)" stroke-width="0" /><circle cx="-5.765808168887369in" cy="-2.937825998950985in" fill="rgb(0,0,255)" r="0.23555889455441165in" stroke="rgb(0,0,255)" stroke-width="0" /><circle cx="-6.185577192644529in" cy="-3.1517089994646903in" fill="rgb(0,0,255)" r="0.23555889455441165in" stroke="rgb(0,0,255)" stroke-width="0" /><circle cx="-6.605346216401691in" cy="-3.3655919999783954in" fill="rgb(0,0,255)" r="0.23555889455441165in" stroke="rgb(0,0,255)" stroke-width="0" /><circle cx="-5.115840986124554in" cy="-3.134991388295692in" fill="rgb(0,0,255)" r="0.23555889455441165in" stroke="rgb(0,0,255)" stroke-width="0" /><circle cx="-5.5175349352604375in" cy="-3.3811497569172033in" fill="rgb(0,0,255)" r="0.23555889455441165in" stroke="rgb(0,0,255)" stroke-width="0" /><circle cx="-5.919228884396321in" cy="-3.6273081255387143in" fill="rgb(0,0,255)" r="0.23555889455441165in" stroke="rgb(0,0,255)" stroke-width="0" /><circle cx="-6.320922833532205in" cy="-3.873466494160226in" fill="rgb(0,0,255)" r="0.23555889455441165in" stroke="rgb(0,0,255)" stroke-width="0" /><circle cx="-4.854101966249686in" cy="-3.5267115137548384in" fill="rgb(0,0,255)" r="0.23555889455441165in" stroke="rgb(0,0,255)" stroke-width="0" /><circle cx="-5.235244263991076in" cy="-3.8036276022856397in" fill="rgb(0,0,255)" r="0.23555889455441165in" stroke="rgb(0,0,255)" stroke-width="0" /><circle cx="-5.616386561732466in" cy="-4.080543690816442in" fill="rgb(0,0,255)" r="0.23555889455441165in" stroke="rgb(0,0,255)" stroke-width="0" /><circle cx="-5.997528859473857in" cy="-4.357459779347244in" fill="rgb(0,0,255)" r="0.23555889455441165in" stroke="rgb(0,0,255)" stroke-width="0" /><circle cx="-4.562435793600186in" cy="-3.8966882899811015in" fill="rgb(0,0,255)" r="0.23555889455441165in" stroke="rgb(0,0,255)" stroke-width="0" /><circle cx="-4.9206765709388325in" cy="-4.202654818651458in" fill="rgb(0,0,255)" r="0.23555889455441165in" stroke="rgb(0,0,255)" stroke-width="0" /><circle cx="-5.27891734827748in" cy="-4.508621347321814in" fill="rgb(0,0,255)" r="0.23555889455441165in" stroke="rgb(0,0,255)" stroke-width="0" /><circle cx="-5.637158125616127in" cy="-4.814587875992171in" fill="rgb(0,0,255)" r="0.23555889455441165in" stroke="rgb(0,0,255)" stroke-width="0" /><circle cx="-4.242640687119286in" cy="-4.242640687119285in" fill="rgb(0,0,255)" r="0.23555889455441165in" stroke="rgb(0,0,255)" stroke-width="0" /><circle cx="-4.575771270535749in" cy="-4.575771270535747in" fill="rgb(0,0,255)" r="0.23555889455441165in" stroke="rgb(0,0,255)" stroke-width="0" /><circle cx="-4.908901853952211in" cy="-4.9089018539522105in" fill="rgb(0,0,255)" r="0.23555889455441165in" stroke="rgb(0,0,255)" stroke-width="0" /><circle cx="-5.242032437368675in" cy="-5.242032437368674in" fill="rgb(0,0,255)" r="0.23555889455441165in" stroke="rgb(0,0,255)" stroke-width="0" /><circle cx="-3.8966882899811006in" cy="-4.562435793600187in" fill="rgb(0,0,255)" r="0.23555889455441165in" stroke="rgb(0,0,255)" stroke-width="0" /><circle cx="-4.202654818651457in" cy="-4.920676570938833in" fill="rgb(0,0,255)" r="0.23555889455441165in" stroke="rgb(0,0,255)" stroke-width="0" /><circle cx="-4.508621347321813in" cy="-5.27891734827748in" fill="rgb(0,0,255)" r="0.23555889455441165in" stroke="rgb(0,0,255)" stroke-width="0" /><circle cx="-4.81458787599217in" cy="-5.637158125616128in" fill="rgb(0,0,255)" r="0.23555889455441165in" stroke="rgb(0,0,255)" stroke-width="0" /><circle cx="-3.5267115137548393in" cy="-4.854101966249684in" fill="rgb(0,0,255)" r="0.23555889455441165in" stroke="rgb(0,0,255)" stroke-width="0" /><circle cx="-3.8036276022856415in" cy="-5.235244263991074in" fill="rgb(0,0,255)" r="0.23555889455441165in" stroke="rgb(0,0,255)" stroke-width="0" /><circle cx="-4.080543690816443in" cy="-5.616386561732465in" fill="rgb(0,0,255)" r="0.23555889455441165in" stroke="rgb(0,0,255)" stroke-width="0" /><circle cx="-4.357459779347246in" cy="-5.997528859473856in" fill="rgb(0,0,255)" r="0.23555889455441165in" stroke="rgb(0,0,255)" stroke-width="0" /><circle cx="-3.1349913882956915in" cy="-5.115840986124555in" fill="rgb(0,0,255)" r="0.23555889455441165in" stroke="rgb(0,0,255)" stroke-width="0" /><circle cx="-3.3811497569172024in" cy="-5.517534935260438in" fill="rgb(0,0,255)" r="0.23555889455441165in" stroke="rgb(0,0,255)" stroke-width="0" /><circle cx="-3.6273081255387134in" cy="-5.919228884396322in" fill="rgb(0,0,255)" r="0.23555889455441165in" stroke="rgb(0,0,255)" stroke-width="0" /><circle cx="-3.8734664941602253in" cy="-6.320922833532206in" fill="rgb(0,0,255)" r="0.23555889455441165in" stroke="rgb(0,0,255)" stroke-width="0" /><circle cx="-2.7239429984372814in" cy="-5.346039145130207in" fill="rgb(0,0,255)" r="0.23555889455441165in" stroke="rgb(0,0,255)" stroke-width="0" /><circle cx="-2.9378259989509865in" cy="-5.765808168887368in" fill="rgb(0,0,255)" r="0.23555889455441165in" stroke="rgb(0,0,255)" stroke-width="0" /><circle cx="-3.1517089994646916in" cy="-6.185577192644529in" fill="rgb(0,0,255)" r="0.23555889455441165in" stroke="rgb(0,0,255)" stroke-width="0" /><circle cx="-3.365591999978397in" cy="-6.60534621640169in" fill="rgb(0,0,255)" r="0.23555889455441165in" stroke="rgb(0,0,255)" stroke-width="0" /><circle cx="-2.296100594190537in" cy="-5.543277195067721in" fill="rgb(0,0,255)" r="0.23555889455441165in" stroke="rgb(0,0,255)" stroke-width="0" /><circle cx="-2.476389566774954in" cy="-5.9785332778273315in" fill="rgb(0,0,255)" r="0.23555889455441165in" stroke="rgb(0,0,255)" stroke-width="0" /><circle cx="-2.656678539359371in" cy="-6.413789360586942in" fill="rgb(0,0,255)" r="0.23555889455441165in" stroke="rgb(0,0,255)" stroke-width="0" /><circle cx="-2.836967511943788in" cy="-6.8490454433465535in" fill="rgb(0,0,255)" r="0.23555889455441165in" stroke="rgb(0,0,255)" stroke-width="0" /><circle cx="-1.8541019662496854in" cy="-5.706339097770921in" fill="rgb(0,0,255)" r="0.23555889455441165in" stroke="rgb(0,0,255)" stroke-width="0" /><circle cx="-1.9996853694366643in" cy="-6.1543987410454335in" fill="rgb(0,0,255)" r="0.23555889455441165in" stroke="rgb(0,0,255)" stroke-width="0" /><circle cx="-2.1452687726236435in" cy="-6.602458384319946in" fill="rgb(0,0,255)" r="0.23555889455441165in" stroke="rgb(0,0,255)" stroke-width="0" /><circle cx="-2.2908521758106226in" cy="-7.050518027594459in" fill="rgb(0,0,255)" r="0.23555889455441165in" stroke="rgb(0,0,255)" stroke-width="0" /><circle cx="-1.400672183135431in" cy="-5.83421952238606in" fill="rgb(0,0,255)" r="0.23555889455441165in" stroke="rgb(0,0,255)" stroke-width="0" /><circle cx="-1.5106524468329297in" cy="-6.292320289479735in" fill="rgb(0,0,255)" r="0.23555889455441165in" stroke="rgb(0,0,255)" stroke-width="0" /><circle cx="-1.6206327105304286in" cy="-6.750421056573412in" fill="rgb(0,0,255)" r="0.23555889455441165in" stroke="rgb(0,0,255)" stroke-width="0" /><circle cx="-1.7306129742279275in" cy="-7.2085218236670885in" fill="rgb(0,0,255)" r="0.23555889455441165in" stroke="rgb(0,0,255)" stroke-width="0" /><circle cx="-0.9386067902413862in" cy="-5.926130043570826in" fill="rgb(0,0,255)" r="0.23555889455441165in" stroke="rgb(0,0,255)" stroke-width="0" /><circle cx="-1.0123058495515613in" cy="-6.39144759092057in" fill="rgb(0,0,255)" r="0.23555889455441165in" stroke="rgb(0,0,255)" stroke-width="0" /><circle cx="-1.0860049088617365in" cy="-6.856765138270313in" fill="rgb(0,0,255)" r="0.23555889455441165in" stroke="rgb(0,0,255)" stroke-width="0" /><circle cx="-1.1597039681719117in" cy="-7.322082685620058in" fill="rgb(0,0,255)" r="0.23555889455441165in" stroke="rgb(0,0,255)" stroke-width="0" /><circle cx="-0.4707545743670681in" cy="-5.981504002398768in" fill="rgb(0,0,255)" r="0.23555889455441165in" stroke="rgb(0,0,255)" stroke-width="0" /><circle cx="-0.5077180500818478in" cy="-6.451169492591382in" fill="rgb(0,0,255)" r="0.23555889455441165in" stroke="rgb(0,0,255)" stroke-width="0" /><circle cx="-0.5446815257966274in" cy="-6.920834982783996in" fill="rgb(0,0,255)" r="0.23555889455441165in" stroke="rgb(0,0,255)" stroke-width="0" /><circle cx="-0.5816450015114073in" cy="-7.390500472976611in" fill="rgb(0,0,255)" r="0.23555889455441165in" stroke="rgb(0,0,255)" stroke-width="0" /><circle cx="-1.102182119232618e-15in" cy="-6.0in" fill="rgb(0,0,255)" r="0.23555889455441165in" stroke="rgb(0,0,255)" stroke-width="0" /><circle cx="-1.1887250531006424e-15in" cy="-6.471117789108823in" fill="rgb(0,0,255)" r="0.23555889455441165in" stroke="rgb(0,0,255)" stroke-width="0" /><circle cx="-1.2752679869686672e-15in" cy="-6.942235578217646in" fill="rgb(0,0,255)" r="0.23555889455441165in" stroke="rgb(0,0,255)" stroke-width="0" /><circle cx="-1.361810920836692e-15in" cy="-7.41335336732647in" fill="rgb(0,0,255)" r="0.23555889455441165in" stroke="rgb(0,0,255)" stroke-width="0" /><circle cx="0.47075457436707124in" cy="-5.981504002398768in" fill="rgb(0,0,255)" r="0.23555889455441165in" stroke="rgb(0,0,255)" stroke-width="0" /><circle cx="0.5077180500818512in" cy="-6.451169492591382in" fill="rgb(0,0,255)" r="0.23555889455441165in" stroke="rgb(0,0,255)" stroke-width="0" /><circle cx="0.5446815257966311in" cy="-6.920834982783996in" fill="rgb(0,0,255)" r="0.23555889455441165in" stroke="rgb(0,0,255)" stroke-width="0" /><circle cx="0.5816450015114112in" cy="-7.390500472976611in" fill="rgb(0,0,255)" r="0.23555889455441165in" stroke="rgb(0,0,255)" stroke-width="0" /><circle cx="0.938606790241384in" cy="-5.926130043570827in" fill="rgb(0,0,255)" r="0.23555889455441165in" stroke="rgb(0,0,255)" stroke-width="0" /><circle cx="1.0123058495515591in" cy="-6.391447590920571in" fill="rgb(0,0,255)" r="0.23555889455441165in" stroke="rgb(0,0,255)" stroke-width="0" /><circle cx="1.086004908861734in" cy="-6.856765138270314in" fill="rgb(0,0,255)" r="0.23555889455441165in" stroke="rgb(0,0,255)" stroke-width="0" /><circle cx="1.159703968171909in" cy="-7.3220826856200585in" fill="rgb(0,0,255)" r="0.23555889455441165in" stroke="rgb(0,0,255)" stroke-width="0" /><circle cx="1.400672183135434in" cy="-5.834219522386059in" fill="rgb(0,0,255)" r="0.23555889455441165in" stroke="rgb(0,0,255)" stroke-width="0" /><circle cx="1.510652446832933in" cy="-6.292320289479735in" fill="rgb(0,0,255)" r="0.23555889455441165in" stroke="rgb(0,0,255)" stroke-width="0" /><circle cx="1.6206327105304321in" cy="-6.750421056573411in" fill="rgb(0,0,255)" r="0.23555889455441165in" stroke="rgb(0,0,255)" stroke-width="0" /><circle cx="1.7306129742279315in" cy="-7.208521823667088in" fill="rgb(0,0,255)" r="0.23555889455441165in" stroke="rgb(0,0,255)" stroke-width="0" /><circle cx="1.8541019662496834in" cy="-5.706339097770922in" fill="rgb(0,0,255)" r="0.23555889455441165in" stroke="rgb(0,0,255)" stroke-width="0" /><circle cx="1.999685369436662in" cy="-6.154398741045434in" fill="rgb(0,0,255)" r="0.23555889455441165in" stroke="rgb(0,0,255)" stroke-width="0" /><circle cx="2.145268772623641in" cy="-6.602458384319946in" fill="rgb(0,0,255)" r="0.23555889455441165in" stroke="rgb(0,0,255)" stroke-width="0" /><circle cx="2.29085217581062in" cy="-7.0505180275944594in" fill="rgb(0,0,255)" r="0.23555889455441165in" stroke="rgb(0,0,255)" stroke-width="0" /><circle cx="2.29610059419054in" cy="-5.54327719506772in" fill="rgb(0,0,255)" r="0.23555889455441165in" stroke="rgb(0,0,255)" stroke-width="0" /><circle cx="2.476389566774957in" cy="-5.978533277827331in" fill="rgb(0,0,255)" r="0.23555889455441165in" stroke="rgb(0,0,255)" stroke-width="0" /><circle cx="2.6566785393593744in" cy="-6.413789360586941in" fill="rgb(0,0,255)" r="0.23555889455441165in" stroke="rgb(0,0,255)" stroke-width="0" /><circle cx="2.8369675119437914in" cy="-6.849045443346552in" fill="rgb(0,0,255)" r="0.23555889455441165in" stroke="rgb(0,0,255)" stroke-width="0" /><circle cx="2.7239429984372796in" cy="-5.346039145130208in" fill="rgb(0,0,255)" r="0.23555889455441165in" stroke="rgb(0,0,255)" stroke-width="0" /><circle cx="2.9378259989509847in" cy="-5.765808168887369in" fill="rgb(0,0,255)" r="0.23555889455441165in" stroke="rgb(0,0,255)" stroke-width="0" /><circle cx="3.15170899946469in" cy="-6.185577192644529in" fill="rgb(0,0,255)" r="0.23555889455441165in" stroke="rgb(0,0,255)" stroke-width="0" /><circle cx="3.365591999978395in" cy="-6.605346216401691in" fill="rgb(0,0,255)" r="0.23555889455441165in" stroke="rgb(0,0,255)" stroke-width="0" /><circle cx="3.134991388295694in" cy="-5.115840986124552in" fill="rgb(0,0,255)" r="0.23555889455441165in" stroke="rgb(0,0,255)" stroke-width="0" /><circle cx="3.3811497569172055in" cy="-5.517534935260436in" fill="rgb(0,0,255)" r="0.23555889455441165in" stroke="rgb(0,0,255)" stroke-width="0" /><circle cx="3.6273081255387165in" cy="-5.919228884396319in" fill="rgb(0,0,255)" r="0.23555889455441165in" stroke="rgb(0,0,255)" stroke-width="0" /><circle cx="3.8734664941602284in" cy="-6.320922833532204in" fill="rgb(0,0,255)" r="0.23555889455441165in" stroke="rgb(0,0,255)" stroke-width="0" /><circle cx="3.5267115137548375in" cy="-4.854101966249686in" fill="rgb(0,0,255)" r="0.23555889455441165in" stroke="rgb(0,0,255)" stroke-width="0" /><circle cx="3.8036276022856392in" cy="-5.235244263991076in" fill="rgb(0,0,255)" r="0.23555889455441165in" stroke="rgb(0,0,255)" stroke-width="0" /><circle cx="4.080543690816441in" cy="-5.616386561732466in" fill="rgb(0,0,255)" r="0.23555889455441165in" stroke="rgb(0,0,255)" stroke-width="0" /><circle cx="4.357459779347243in" cy="-5.997528859473857in" fill="rgb(0,0,255)" r="0.23555889455441165in" stroke="rgb(0,0,255)" stroke-width="0" /><circle cx="3.8966882899811033in" cy="-4.562435793600185in" fill="rgb(0,0,255)" r="0.23555889455441165in" stroke="rgb(0,0,255)" stroke-width="0" /><circle cx="4.202654818651459in" cy="-4.920676570938832in" fill="rgb(0,0,255)" r="0.23555889455441165in" stroke="rgb(0,0,255)" stroke-width="0" /><circle cx="4.508621347321816in" cy="-5.278917348277478in" fill="rgb(0,0,255)" r="0.23555889455441165in" stroke="rgb(0,0,255)" stroke-width="0" /><circle cx="4.814587875992173in" cy="-5.637158125616125in" fill="rgb(0,0,255)" r="0.23555889455441165in" stroke="rgb(0,0,255)" stroke-width="0" /><circle cx="4.242640687119284in" cy="-4.242640687119286in" fill="rgb(0,0,255)" r="0.23555889455441165in" stroke="rgb(0,0,255)" stroke-width="0" /><circle cx="4.575771270535746in" cy="-4.575771270535749in" fill="rgb(0,0,255)" r="0.23555889455441165in" stroke="rgb(0,0,255)" stroke-width="0" /><circle cx="4.90890185395221in" cy="-4.908901853952211in" fill="rgb(0,0,255)" r="0.23555889455441165in" stroke="rgb(0,0,255)" stroke-width="0" /><circle cx="5.242032437368673in" cy="-5.242032437368675in" fill="rgb(0,0,255)" r="0.23555889455441165in" stroke="rgb(0,0,255)" stroke-width="0" /><circle cx="4.562435793600186in" cy="-3.8966882899811006in" fill="rgb(0,0,255)" r="0.23555889455441165in" stroke="rgb(0,0,255)" stroke-width="0" /><circle cx="4.9206765709388325in" cy="-4.202654818651457in" fill="rgb(0,0,255)" r="0.23555889455441165in" stroke="rgb(0,0,255)" stroke-width="0" /><circle cx="5.27891734827748in" cy="-4.508621347321813in" fill="rgb(0,0,255)" r="0.23555889455441165in" stroke="rgb(0,0,255)" stroke-width="0" /><circle cx="5.637158125616127in" cy="-4.81458787599217in" fill="rgb(0,0,255)" r="0.23555889455441165in" stroke="rgb(0,0,255)" stroke-width="0" /><circle cx="4.854101966249684in" cy="-3.52671151375484in" fill="rgb(0,0,255)" r="0.23555889455441165in" stroke="rgb(0,0,255)" stroke-width="0" /><circle cx="5.235244263991074in" cy="-3.803627602285642in" fill="rgb(0,0,255)" r="0.23555889455441165in" stroke="rgb(0,0,255)" stroke-width="0" /><circle cx="5.616386561732465in" cy="-4.080543690816444in" fill="rgb(0,0,255)" r="0.23555889455441165in" stroke="rgb(0,0,255)" stroke-width="0" /><circle cx="5.997528859473856in" cy="-4.357459779347247in" fill="rgb(0,0,255)" r="0.23555889455441165in" stroke="rgb(0,0,255)" stroke-width="0" /><circle cx="5.115840986124554in" cy="-3.134991388295692in" fill="rgb(0,0,255)" r="0.23555889455441165in" stroke="rgb(0,0,255)" stroke-width="0" /><circle cx="5.5175349352604375in" cy="-3.3811497569172033in" fill="rgb(0,0,255)" r="0.23555889455441165in" stroke="rgb(0,0,255)" stroke-width="0" /><circle cx="5.919228884396321in" cy="-3.6273081255387143in" fill="rgb(0,0,255)" r="0.23555889455441165in" stroke="rgb(0,0,255)" stroke-width="0" /><circle cx="6.320922833532205in" cy="-3.873466494160226in" fill="rgb(0,0,255)" r="0.23555889455441165in" stroke="rgb(0,0,255)" stroke-width="0" /><circle cx="5.346039145130207in" cy="-2.723942998437282in" fill="rgb(0,0,255)" r="0.23555889455441165in" stroke="rgb(0,0,255)" stroke-width="0" /><circle cx="5.765808168887368in" cy="-2.937825998950987in" fill="rgb(0,0,255)" r="0.23555889455441165in" stroke="rgb(0,0,255)" stroke-width="0" /><circle cx="6.185577192644529in" cy="-3.151708999464692in" fill="rgb(0,0,255)" r="0.23555889455441165in" stroke="rgb(0,0,255)" stroke-width="0" /><circle cx="6.60534621640169in" cy="-3.3655919999783976in" fill="rgb(0,0,255)" r="0.23555889455441165in" stroke="rgb(0,0,255)" stroke-width="0" /><circle cx="5.543277195067721in" cy="-2.2961005941905372in" fill="rgb(0,0,255)" r="0.23555889455441165in" stroke="rgb(0,0,255)" stroke-width="0" /><circle cx="5.9785332778273315in" cy="-2.4763895667749543in" fill="rgb(0,0,255)" r="0.23555889455441165in" stroke="rgb(0,0,255)" stroke-width="0" /><circle cx="6.413789360586942in" cy="-2.6566785393593713in" fill="rgb(0,0,255)" r="0.23555889455441165in" stroke="rgb(0,0,255)" stroke-width="0" /><circle cx="6.8490454433465535in" cy="-2.8369675119437883in" fill="rgb(0,0,255)" r="0.23555889455441165in" stroke="rgb(0,0,255)" stroke-width="0" /><circle cx="5.706339097770921in" cy="-1.854101966249686in" fill="rgb(0,0,255)" r="0.23555889455441165in" stroke="rgb(0,0,255)" stroke-width="0" /><circle cx="6.1543987410454335in" cy="-1.999685369436665in" fill="rgb(0,0,255)" r="0.23555889455441165in" stroke="rgb(0,0,255)" stroke-width="0" /><circle cx="6.602458384319946in" cy="-2.145268772623644in" fill="rgb(0,0,255)" r="0.23555889455441165in" stroke="rgb(0,0,255)" stroke-width="0" /><circle cx="7.050518027594459in" cy="-2.2908521758106235in" fill="rgb(0,0,255)" r="0.23555889455441165in" stroke="rgb(0,0,255)" stroke-width="0" /><circle cx="5.83421952238606in" cy="-1.4006721831354312in" fill="rgb(0,0,255)" r="0.23555889455441165in" stroke="rgb(0,0,255)" stroke-width="0" /><circle cx="6.292320289479735in" cy="-1.51065244683293in" fill="rgb(0,0,255)" r="0.23555889455441165in" stroke="rgb(0,0,255)" stroke-width="0" /><circle cx="6.750421056573412in" cy="-1.6206327105304288in" fill="rgb(0,0,255)" r="0.23555889455441165in" stroke="rgb(0,0,255)" stroke-width="0" /><circle cx="7.2085218236670885in" cy="-1.730612974227928in" fill="rgb(0,0,255)" r="0.23555889455441165in" stroke="rgb(0,0,255)" stroke-width="0" /><circle cx="5.926130043570826in" cy="-0.9386067902413867in" fill="rgb(0,0,255)" r="0.23555889455441165in" stroke="rgb(0,0,255)" stroke-width="0" /><circle cx="6.39144759092057in" cy="-1.012305849551562in" fill="rgb(0,0,255)" r="0.23555889455441165in" stroke="rgb(0,0,255)" stroke-width="0" /><circle cx="6.856765138270313in" cy="-1.0860049088617372in" fill="rgb(0,0,255)" r="0.23555889455441165in" stroke="rgb(0,0,255)" stroke-width="0" /><circle cx="7.322082685620058in" cy="-1.1597039681719123in" fill="rgb(0,0,255)" r="0.23555889455441165in" stroke="rgb(0,0,255)" stroke-width="0" /><circle cx="5.981504002398768in" cy="-0.47075457436706847in" fill="rgb(0,0,255)" r="0.23555889455441165in" stroke="rgb(0,0,255)" stroke-width="0" /><circle cx="6.451169492591382in" cy="-0.5077180500818482in" fill="rgb(0,0,255)" r="0.23555889455441165in" stroke="rgb(0,0,255)" stroke-width="0" /><circle cx="6.920834982783996in" cy="-0.544681525796628in" fill="rgb(0,0,255)" r="0.23555889455441165in" stroke="rgb(0,0,255)" stroke-width="0" /><circle cx="7.390500472976611in" cy="-0.5816450015114077in" fill="rgb(0,0,255)" r="0.23555889455441165in" stroke="rgb(0,0,255)" stroke-width="0" /></svg>